<?xml version="1.0" encoding="UTF-8" standalone="no"?>
<svg
   height="24px"
   viewBox="0 -960 960 960"
   width="24px"
   fill="#e8eaed"
   version="1.1"
   id="svg1"
   sodipodi:docname="self_improvement_24dp_E8EAED_FILL1_wght400_GRAD0_opsz24.svg"
   inkscape:version="1.3.2 (091e20ef0f, 2023-11-25, custom)"
   xmlns:inkscape="http://www.inkscape.org/namespaces/inkscape"
   xmlns:sodipodi="http://sodipodi.sourceforge.net/DTD/sodipodi-0.dtd"
   xmlns="http://www.w3.org/2000/svg"
   xmlns:svg="http://www.w3.org/2000/svg">
  <defs
     id="defs1" />
  <sodipodi:namedview
     id="namedview1"
     pagecolor="#ffffff"
     bordercolor="#000000"
     borderopacity="0.25"
     inkscape:showpageshadow="2"
     inkscape:pageopacity="0.0"
     inkscape:pagecheckerboard="0"
     inkscape:deskcolor="#d1d1d1"
     inkscape:zoom="31.25"
     inkscape:cx="12"
     inkscape:cy="11.984"
     inkscape:window-width="1920"
     inkscape:window-height="1011"
     inkscape:window-x="0"
     inkscape:window-y="0"
     inkscape:window-maximized="1"
     inkscape:current-layer="svg1" />
  <rect
     style="fill:#f7b500;fill-opacity:1;stroke:none;stroke-width:211.165"
     id="rect1"
     width="960"
     height="960"
     x="0"
     y="-960" />
  <path
     d="M272-160q-30 0-51-21t-21-51q0-21 12-39.5t32-26.5l156-62v-90q-54 63-125.5 96.5T120-320v-80q68 0 123.5-28T344-508l54-64q12-14 28-21t34-7h40q18 0 34 7t28 21l54 64q45 52 100.5 80T840-400v80q-83 0-154.5-33.5T560-450v90l156 62q20 8 32 26.5t12 39.5q0 30-21 51t-51 21H400v-20q0-26 17-43t43-17h120q9 0 14.5-5.5T600-260q0-9-5.5-14.5T580-280H460q-42 0-71 29t-29 71v20h-88Zm208-480q-33 0-56.5-23.5T400-720q0-33 23.5-56.5T480-800q33 0 56.5 23.5T560-720q0 33-23.5 56.5T480-640Z"
     id="path1"
     style="fill:#232333;fill-opacity:1;stroke:none" />
</svg>
