<?xml version="1.0" encoding="UTF-8" standalone="no"?>
<svg
   height="24px"
   viewBox="0 -960 960 960"
   width="24px"
   fill="#e8eaed"
   version="1.1"
   id="svg1"
   sodipodi:docname="emoji_people_24dp_E8EAED_FILL1_wght400_GRAD0_opsz24.svg"
   inkscape:version="1.3.2 (091e20ef0f, 2023-11-25, custom)"
   xmlns:inkscape="http://www.inkscape.org/namespaces/inkscape"
   xmlns:sodipodi="http://sodipodi.sourceforge.net/DTD/sodipodi-0.dtd"
   xmlns="http://www.w3.org/2000/svg"
   xmlns:svg="http://www.w3.org/2000/svg">
  <defs
     id="defs1" />
  <sodipodi:namedview
     id="namedview1"
     pagecolor="#ffffff"
     bordercolor="#000000"
     borderopacity="0.25"
     inkscape:showpageshadow="2"
     inkscape:pageopacity="0.0"
     inkscape:pagecheckerboard="0"
     inkscape:deskcolor="#d1d1d1"
     inkscape:zoom="31.25"
     inkscape:cx="12"
     inkscape:cy="11.984"
     inkscape:window-width="1920"
     inkscape:window-height="1011"
     inkscape:window-x="0"
     inkscape:window-y="0"
     inkscape:window-maximized="1"
     inkscape:current-layer="svg1" />
  <rect
     style="fill:#f7b500;fill-opacity:1;stroke:none;stroke-width:211.165"
     id="rect1"
     width="960"
     height="960"
     x="0"
     y="-960" />
  <path
     d="M360-80v-529q-91-24-145.5-100.5T160-880h80q0 83 53.5 141.5T430-680h100q30 0 56 11t47 32l181 181-56 56-158-158v478h-80v-240h-80v240h-80Zm120-640q-33 0-56.5-23.5T400-800q0-33 23.5-56.5T480-880q33 0 56.5 23.5T560-800q0 33-23.5 56.5T480-720Z"
     id="path1"
     style="stroke:none;fill:#232333;fill-opacity:1" />
</svg>
