<?xml version="1.0" encoding="UTF-8" standalone="no"?>
<svg
   height="24px"
   viewBox="0 -960 960 960"
   width="24px"
   fill="#e8eaed"
   version="1.1"
   id="svg1"
   sodipodi:docname="typingman.svg"
   inkscape:version="1.3.2 (091e20ef0f, 2023-11-25, custom)"
   xmlns:inkscape="http://www.inkscape.org/namespaces/inkscape"
   xmlns:sodipodi="http://sodipodi.sourceforge.net/DTD/sodipodi-0.dtd"
   xmlns="http://www.w3.org/2000/svg"
   xmlns:svg="http://www.w3.org/2000/svg">
  <defs
     id="defs1" />
  <sodipodi:namedview
     id="namedview1"
     pagecolor="#ffffff"
     bordercolor="#000000"
     borderopacity="0.25"
     inkscape:showpageshadow="2"
     inkscape:pageopacity="0.0"
     inkscape:pagecheckerboard="0"
     inkscape:deskcolor="#d1d1d1"
     inkscape:zoom="23.629152"
     inkscape:cx="13.33099"
     inkscape:cy="12.717342"
     inkscape:window-width="1920"
     inkscape:window-height="1011"
     inkscape:window-x="0"
     inkscape:window-y="0"
     inkscape:window-maximized="1"
     inkscape:current-layer="svg1" />
  <rect
     style="fill:#f7b500;stroke-width:42.1862"
     id="rect1"
     width="960"
     height="960"
     x="0"
     y="-960" />
  <path
     d="m540-60-80-16 32-172-144-108-52-228-88 76 32 152-80 16-40-196 178-159q23-20 54.5-16.5T413-696q32 14 66.5 20t69.5 1q35-5 64.5-23t56.5-40l50 62q-30 23-62 43t-69 31q-33 9-66.5 9.5T456-600l28 124 148-28 208 148-48 64-172-120-144 28 108 80-44 244ZM320-740q-33 0-56.5-23.5T240-820q0-33 23.5-56.5T320-900q33 0 56.5 23.5T400-820q0 33-23.5 56.5T320-740Z"
     id="path1"
     style="stroke:none;fill:#232333;fill-opacity:1" />
</svg>
