<?xml version="1.0" encoding="UTF-8" standalone="no"?>
<svg
   height="24px"
   viewBox="0 -960 960 960"
   width="24px"
   fill="#e8eaed"
   version="1.1"
   id="svg1"
   sodipodi:docname="favicon.svg"
   inkscape:version="1.3.2 (091e20ef0f, 2023-11-25, custom)"
   xmlns:inkscape="http://www.inkscape.org/namespaces/inkscape"
   xmlns:sodipodi="http://sodipodi.sourceforge.net/DTD/sodipodi-0.dtd"
   xmlns="http://www.w3.org/2000/svg"
   xmlns:svg="http://www.w3.org/2000/svg">
  <defs
     id="defs1" />
  <sodipodi:namedview
     id="namedview1"
     pagecolor="#ffffff"
     bordercolor="#000000"
     borderopacity="0.25"
     inkscape:showpageshadow="2"
     inkscape:pageopacity="0.0"
     inkscape:pagecheckerboard="0"
     inkscape:deskcolor="#d1d1d1"
     inkscape:zoom="33.541667"
     inkscape:cx="11.970186"
     inkscape:cy="11.522981"
     inkscape:window-width="1920"
     inkscape:window-height="1011"
     inkscape:window-x="0"
     inkscape:window-y="0"
     inkscape:window-maximized="1"
     inkscape:current-layer="svg1" />
  <rect
     style="fill:#f7b500;stroke:none;stroke-width:20;stroke-dasharray:none;stroke-opacity:1;fill-opacity:1"
     id="rect1"
     width="960"
     height="960"
     x="0"
     y="-960" />
  <path
     d="m400-80-20-360-127-73-14 52 81 141-69 40-99-170 48-172 230-132-110-110 56-56 184 183-144 83 48 42 328-268 48 56-340 344-20 400h-80ZM200-680q-33 0-56.5-23.5T120-760q0-33 23.5-56.5T200-840q33 0 56.5 23.5T280-760q0 33-23.5 56.5T200-680Z"
     id="path1"
     style="fill:#232333;fill-opacity:1;stroke:none;stroke-opacity:1;stroke-width:20;stroke-dasharray:none" />
</svg>
