<?xml version="1.0" encoding="UTF-8" standalone="no"?>
<svg
   height="24px"
   viewBox="0 -960 960 960"
   width="24px"
   fill="#e8eaed"
   version="1.1"
   id="svg1"
   sodipodi:docname="members.svg"
   inkscape:version="1.3.2 (091e20ef0f, 2023-11-25, custom)"
   xmlns:inkscape="http://www.inkscape.org/namespaces/inkscape"
   xmlns:sodipodi="http://sodipodi.sourceforge.net/DTD/sodipodi-0.dtd"
   xmlns="http://www.w3.org/2000/svg"
   xmlns:svg="http://www.w3.org/2000/svg">
  <defs
     id="defs1" />
  <sodipodi:namedview
     id="namedview1"
     pagecolor="#ffffff"
     bordercolor="#000000"
     borderopacity="0.25"
     inkscape:showpageshadow="2"
     inkscape:pageopacity="0.0"
     inkscape:pagecheckerboard="0"
     inkscape:deskcolor="#d1d1d1"
     inkscape:zoom="22.097087"
     inkscape:cx="8.2816346"
     inkscape:cy="14.413665"
     inkscape:window-width="1920"
     inkscape:window-height="1011"
     inkscape:window-x="0"
     inkscape:window-y="0"
     inkscape:window-maximized="1"
     inkscape:current-layer="svg1" />
  <path
     d="m 200,-80 v -280 h -80 v -240 q 0,-33 23.5,-56.5 Q 167,-680 200,-680 h 160 q 33,0 56.5,23.5 23.5,23.5 23.5,56.5 v 240 h -80 v 280 z m 80,-640 q -33,0 -56.5,-23.5 Q 200,-767 200,-800 q 0,-33 23.5,-56.5 23.5,-23.5 56.5,-23.5 33,0 56.5,23.5 23.5,23.5 23.5,56.5 0,33 -23.5,56.5 Q 313,-720 280,-720 Z"
     id="path1"
     style="fill:#232333;fill-opacity:1;stroke:none" />
  <path
     d="M 600,-80.000002 V -360 h -80 v -240 q 0,-33 23.5,-56.5 Q 567,-680 600,-680 h 160 q 33,0 56.5,23.5 23.5,23.5 23.5,56.5 v 240 H 760 V -80.000003 Z M 680,-720 q -33,0 -56.5,-23.5 Q 600,-767 600,-800 q 0,-33 23.5,-56.5 23.5,-23.5 56.5,-23.5 33,0 56.5,23.5 23.5,23.5 23.5,56.5 0,33 -23.5,56.5 Q 713,-720 680,-720 Z"
     id="path1-6"
     style="fill:#232333;fill-opacity:1;stroke:none" />
</svg>
