<?xml version="1.0" encoding="UTF-8" standalone="no"?>
<svg
   height="24px"
   viewBox="0 -960 960 960"
   width="24px"
   fill="#e8eaed"
   version="1.1"
   id="svg1"
   sodipodi:docname="toybox.svg"
   inkscape:version="1.3.2 (091e20ef0f, 2023-11-25, custom)"
   xmlns:inkscape="http://www.inkscape.org/namespaces/inkscape"
   xmlns:sodipodi="http://sodipodi.sourceforge.net/DTD/sodipodi-0.dtd"
   xmlns="http://www.w3.org/2000/svg"
   xmlns:svg="http://www.w3.org/2000/svg">
  <defs
     id="defs1" />
  <sodipodi:namedview
     id="namedview1"
     pagecolor="#ffffff"
     bordercolor="#000000"
     borderopacity="0.25"
     inkscape:showpageshadow="2"
     inkscape:pageopacity="0.0"
     inkscape:pagecheckerboard="0"
     inkscape:deskcolor="#d1d1d1"
     inkscape:zoom="31.25"
     inkscape:cx="12"
     inkscape:cy="11.984"
     inkscape:window-width="1920"
     inkscape:window-height="1043"
     inkscape:window-x="0"
     inkscape:window-y="0"
     inkscape:window-maximized="1"
     inkscape:current-layer="svg1" />
  <rect
     style="fill:#f7b500;fill-opacity:1;stroke:none;stroke-width:20;stroke-dasharray:none;stroke-opacity:1"
     id="rect1"
     width="960"
     height="960"
     x="0"
     y="-960" />
  <path
     d="M754-81q-8 0-15-2.5T726-92L522-296q-6-6-8.5-13t-2.5-15q0-8 2.5-15t8.5-13l85-85q6-6 13-8.5t15-2.5q8 0 15 2.5t13 8.5l204 204q6 6 8.5 13t2.5 15q0 8-2.5 15t-8.5 13l-85 85q-6 6-13 8.5T754-81Zm-549 1q-8 0-15.5-3T176-92l-84-84q-6-6-9-13.5T80-205q0-8 3-15t9-13l212-212h85l34-34-165-165h-57L80-765l113-113 121 121v57l165 165 116-116-43-43 56-56H495l-28-28 142-142 28 28v113l56-56 142 142q17 17 26 38.5t9 45.5q0 24-9 46t-26 39l-85-85-56 56-42-42-207 207v84L233-92q-6 6-13 9t-15 3Z"
     id="path1"
     style="fill:#232333;fill-opacity:1;stroke:none" />
</svg>
